<?xml version="1.0" encoding="iso-8859-1"?>
<!-- Generator: Adobe Illustrator 16.0.0, SVG Export Plug-In . SVG Version: 6.00 Build 0)  -->
<!DOCTYPE svg PUBLIC "-//W3C//DTD SVG 1.1//EN" "http://www.w3.org/Graphics/SVG/1.1/DTD/svg11.dtd">
<svg version="1.1" id="Capa_1" xmlns="http://www.w3.org/2000/svg" xmlns:xlink="http://www.w3.org/1999/xlink" x="0px" y="0px"
	 width="869.959px" height="869.959px" viewBox="0 0 869.959 869.959" style="enable-background:new 0 0 869.959 869.959;"
	 xml:space="preserve">
<g>
	<path d="M147.081,722.304c10.231,10.111,23.566,15.156,36.897,15.156c13.541,0,27.078-5.207,37.347-15.602
		c20.38-20.625,20.18-53.865-0.445-74.244l-41.238-40.746h423.977c71.142,0,138.025-27.705,188.331-78.01
		c50.305-50.305,78.009-117.189,78.009-188.331v-4.32c0-71.142-27.704-138.026-78.009-188.331
		c-20.502-20.503-53.744-20.503-74.246,0c-20.503,20.502-20.503,53.744,0,74.246c30.473,30.473,47.255,70.989,47.255,114.085v4.32
		c0,88.962-72.377,161.339-161.34,161.339H178.851l42.677-43.191c20.38-20.625,20.18-53.866-0.445-74.245
		c-20.624-20.379-53.866-20.18-74.244,0.445L15.155,518.147c-9.787,9.904-15.238,23.291-15.154,37.215
		c0.083,13.924,5.694,27.244,15.6,37.029L147.081,722.304z"/>
</g>
<g>
</g>
<g>
</g>
<g>
</g>
<g>
</g>
<g>
</g>
<g>
</g>
<g>
</g>
<g>
</g>
<g>
</g>
<g>
</g>
<g>
</g>
<g>
</g>
<g>
</g>
<g>
</g>
<g>
</g>
</svg>
