<?xml version="1.0" encoding="iso-8859-1"?>
<svg version="1.1" id="Capa_1" xmlns="http://www.w3.org/2000/svg" xmlns:xlink="http://www.w3.org/1999/xlink" x="0px" y="0px"
	 viewBox="0 0 512.001 512.001" style="enable-background:new 0 0 512.001 512.001;" xml:space="preserve">
<path d="M484.961,243.116c-0.002-5.521-4.479-9.996-10-9.996h-26.563c-4.625-17.944-11.698-35.028-21.103-50.968l18.785-18.785
			c3.905-3.905,3.905-10.237,0-14.143l-56.297-56.297c-3.905-3.905-10.237-3.905-14.143,0l-5.663,5.663
			c-0.531-40-22.248-77.159-56.97-97.244c-3.094-1.791-6.908-1.792-10.003-0.007c-3.096,1.786-5.004,5.088-5.004,8.663v78.6
			l-42.001,24.25l-42.001-24.25V10.001c0-3.574-1.908-6.876-5.004-8.663c-3.096-1.786-6.91-1.783-10.003,0.007
			c-34.676,20.06-56.38,57.146-56.967,97.085l-5.6-5.6c-3.905-3.905-10.237-3.905-14.143,0l-56.297,56.297
			c-3.905,3.905-3.905,10.237,0,14.143l18.88,18.879c-9.404,15.94-16.479,33.025-21.104,50.97H37.036c-5.521,0-9.998,4.475-10,9.996
			l-0.029,79.616c-0.001,2.653,1.052,5.197,2.928,7.073c1.875,1.877,4.419,2.931,7.072,2.931h26.751
			c4.625,17.944,11.698,35.03,21.103,50.971l-18.944,18.944c-3.905,3.905-3.905,10.237,0,14.143l56.297,56.297
			c3.905,3.904,10.237,3.904,14.143,0l18.944-18.944c15.94,9.404,33.027,16.479,50.972,21.104V502c0,2.652,1.054,5.197,2.93,7.072
			c1.875,1.875,4.418,2.928,7.07,2.928c0.001,0,0.002,0,0.004,0l79.616-0.029c5.521-0.002,9.996-4.479,9.996-10v-26.723
			c17.944-4.625,35.03-11.698,50.971-21.104l18.879,18.88c1.875,1.875,4.419,2.929,7.071,2.929c0.001,0,0.002,0,0.003,0
			c2.653-0.001,5.197-1.056,7.072-2.933l56.266-56.328c3.901-3.906,3.899-10.234-0.004-14.139l-18.849-18.85
			c9.404-15.94,16.478-33.024,21.103-50.969h26.592c2.653,0,5.197-1.054,7.072-2.931c1.875-1.876,2.929-4.42,2.928-7.073
			L484.961,243.116z M193.997,29.449v64.925c0,3.573,1.906,6.874,5,8.66l52.002,30.023c3.094,1.786,6.906,1.786,10,0l52.002-30.023
			c3.094-1.786,5-5.087,5-8.66V29.449c20.072,17.68,32.001,43.413,32.001,70.639c0,51.834-42.169,94.003-94.003,94.003
			s-94.003-42.169-94.003-94.003C161.996,72.862,173.925,47.128,193.997,29.449z M440.488,312.736v-0.001
			c-4.713,0-8.787,3.291-9.777,7.899c-4.537,21.118-12.772,41.008-24.478,59.119c-2.559,3.958-2.005,9.166,1.327,12.499
			l17.376,17.376l-42.13,42.177l-17.398-17.398c-3.333-3.331-8.54-3.887-12.5-1.327c-18.111,11.704-38.001,19.941-59.121,24.479
			c-4.608,0.99-7.899,5.064-7.899,9.777v24.638l-59.615,0.021v-24.658c0-4.713-3.291-8.787-7.899-9.776
			c-21.12-4.538-41.01-12.774-59.121-24.48c-3.959-2.559-9.167-2.005-12.5,1.327l-17.467,17.467L87.13,409.722l17.467-17.467
			c3.333-3.333,3.886-8.541,1.327-12.499c-11.704-18.111-19.94-38.002-24.479-59.121c-0.99-4.608-5.063-7.899-9.777-7.899H47.012
			l0.021-59.615h24.638c4.713,0,8.787-3.291,9.777-7.899c4.538-21.12,12.773-41.01,24.479-59.12c2.559-3.958,2.005-9.167-1.327-12.5
			L87.197,156.2l42.154-42.154l16.887,16.887c7.587,26.965,24.868,49.909,47.826,64.823v192.39c-0.265-0.156-0.533-0.302-0.797-0.46
			c-4.733-2.844-10.878-1.31-13.721,3.426c-2.843,4.734-1.309,10.878,3.426,13.721c22.701,13.63,47.934,20.278,72.996,20.277
			c36.686-0.001,73.002-14.247,100.444-41.688c24.31-24.311,38.967-56.569,41.271-90.834c2.281-33.932-7.639-67.534-27.934-94.615
			c-3.313-4.418-9.579-5.316-14-2.005c-4.419,3.312-5.317,9.58-2.005,14c36.104,48.178,31.171,116.667-11.474,159.312
			c-7.393,7.393-15.536,13.671-24.202,18.808V273.675c0-5.522-4.477-10-10-10s-10,4.478-10,10v123.913
			c-13.511,4.975-27.772,7.513-42.102,7.512c-14.121-0.001-28.306-2.476-41.9-7.472V206.099c12.986,5.155,27.136,7.992,41.935,7.992
			c52.097,0,96.142-35.126,109.701-82.938l17.013-17.013l42.154,42.154l-17.308,17.307c-3.333,3.333-3.886,8.541-1.327,12.5
			c11.704,18.11,19.94,38,24.478,59.119c0.99,4.608,5.063,7.899,9.777,7.899h24.478l0.022,59.615H440.488z"/>
<path d="M156.009,196.24c-4.428-3.3-10.694-2.384-13.994,2.044c-29.716,39.882-36.291,93.253-17.158,139.286
			c1.598,3.846,5.318,6.165,9.238,6.165c1.279,0,2.58-0.247,3.834-0.769c5.1-2.119,7.516-7.971,5.396-13.071
			c-16.44-39.553-10.796-85.404,14.727-119.66C161.354,205.806,160.438,199.541,156.009,196.24z"/>
<path d="M160.427,359.946c-0.006-0.006-0.012-0.012-0.018-0.018c-3.904-3.901-10.26-3.933-14.167-0.032
			s-3.884,10.257,0.015,14.167c1.96,1.965,4.542,2.951,7.122,2.951c2.55,0,5.1-0.964,7.044-2.901
			C164.335,370.217,164.32,363.861,160.427,359.946z"/>
<path d="M315.141,225.266c-1.86-1.86-4.44-2.93-7.07-2.93c-2.64,0-5.22,1.07-7.07,2.93c-1.87,1.86-2.93,4.44-2.93,7.07
			c0,2.64,1.06,5.21,2.93,7.07c1.86,1.87,4.43,2.93,7.07,2.93c2.63,0,5.21-1.06,7.07-2.93c1.86-1.86,2.93-4.43,2.93-7.07
			C318.071,229.706,317.001,227.126,315.141,225.266z"/>
</svg>
