<svg id="Capa_1" enable-background="new 00 0 312 312" height="115" viewBox="100 95 312 312" width="102" xmlns="http://www.w3.org/2000/svg">
<path d="m282.447 89.673h-52.895c-14.214 0-25.778 11.563-25.778 25.777v12.939h-67.014c-14.81 0-26.858 12.049-26.858 26.858 0 13.754 10.394 25.12 23.739 26.671l25.882 210.113c2.128 17.271 16.854 30.295 34.256 30.295h124.441c17.402 0 32.128-13.024 34.256-30.295l25.882-210.113c13.344-1.552 23.739-12.918 23.739-26.671 0-14.81-12.049-26.858-26.858-26.858h-67.014v-12.939c0-14.214-11.564-25.777-25.778-25.777zm-63.672 25.777c0-5.942 4.835-10.777 10.778-10.777h52.895c5.943 0 10.778 4.835 10.778 10.777v12.939h-74.45v-12.939zm156.464 27.94c6.539 0 11.858 5.319 11.858 11.858s-5.32 11.858-11.858 11.858c-19.167 0-141.695 0-160.165 0-4.142 0-7.5 3.357-7.5 7.5s3.358 7.5 7.5 7.5h148.148l-25.633 208.092c-1.203 9.765-9.53 17.129-19.369 17.129h-124.441c-9.839 0-18.166-7.364-19.369-17.129l-25.633-208.092h31.233c4.142 0 7.5-3.357 7.5-7.5s-3.358-7.5-7.5-7.5c-5.943 0-33.384 0-43.25 0-6.539 0-11.858-5.319-11.858-11.858s5.32-11.858 11.858-11.858z"/>
<path d="m206.536 368.531c.344 3.902 3.618 6.842 7.462 6.842.221 0 .443-.009.667-.029 4.126-.363 7.176-4.003 6.813-8.129l-13.577-154.102c-.363-4.127-4.006-7.188-8.129-6.812-4.126.363-7.176 4.003-6.813 8.129z"/>
<path d="m256 375.373c4.142 0 7.5-3.357 7.5-7.5v-154.102c0-4.143-3.358-7.5-7.5-7.5s-7.5 3.357-7.5 7.5v154.102c0 4.143 3.358 7.5 7.5 7.5z"/>
<path d="m297.335 375.344c.224.021.446.029.667.029 3.844 0 7.119-2.939 7.462-6.842l13.577-154.102c.363-4.126-2.687-7.766-6.813-8.129-4.123-.386-7.766 2.687-8.129 6.812l-13.577 154.102c-.363 4.127 2.687 7.766 6.813 8.13z"/>
</svg>